<svg width="32" height="32" viewBox="0 0 32 32" fill="none" xmlns="http://www.w3.org/2000/svg">
<path d="M15.9997 16.0003C16.733 16.0003 17.3608 15.7392 17.883 15.217C18.4052 14.6948 18.6663 14.067 18.6663 13.3337C18.6663 12.6003 18.4052 11.9725 17.883 11.4503C17.3608 10.9281 16.733 10.667 15.9997 10.667C15.2663 10.667 14.6386 10.9281 14.1163 11.4503C13.5941 11.9725 13.333 12.6003 13.333 13.3337C13.333 14.067 13.5941 14.6948 14.1163 15.217C14.6386 15.7392 15.2663 16.0003 15.9997 16.0003ZM15.9997 25.8003C18.7108 23.3114 20.7219 21.0503 22.033 19.017C23.3441 16.9837 23.9997 15.1781 23.9997 13.6003C23.9997 11.1781 23.2275 9.19477 21.683 7.65033C20.1386 6.10588 18.2441 5.33366 15.9997 5.33366C13.7552 5.33366 11.8608 6.10588 10.3163 7.65033C8.7719 9.19477 7.99967 11.1781 7.99967 13.6003C7.99967 15.1781 8.65523 16.9837 9.96634 19.017C11.2775 21.0503 13.2886 23.3114 15.9997 25.8003ZM15.9997 29.3337C12.4219 26.2892 9.74967 23.4614 7.98301 20.8503C6.21634 18.2392 5.33301 15.8225 5.33301 13.6003C5.33301 10.267 6.40523 7.61144 8.54967 5.63366C10.6941 3.65588 13.1775 2.66699 15.9997 2.66699C18.8219 2.66699 21.3052 3.65588 23.4497 5.63366C25.5941 7.61144 26.6663 10.267 26.6663 13.6003C26.6663 15.8225 25.783 18.2392 24.0163 20.8503C22.2497 23.4614 19.5775 26.2892 15.9997 29.3337Z" fill="#FAFAFA"/>
</svg>
